<?xml version="1.0" encoding="utf-8"?><svg version="1.1" xmlns="http://www.w3.org/2000/svg" xmlns:xlink="http://www.w3.org/1999/xlink" width="320" height="240" viewbox="0 0 320 240"><style>path {stroke: #f09; stroke-weight: 0.5px; fill: none; opactiy: 0.75} path:nth-child(odd) {stroke: #09f; stroke-weight: 0.5px; fill: none; opactiy: 0.75}</style><path d="M 50.0 190.0 L52.15384615384616 50.0 L52.05882352941177 50.0 L52.05882352941177 190.0 L54.117647058823536 190.0 L56.27149321266968 50.0 L56.17647058823529 50.0 L56.17647058823529 190.0 L58.23529411764706 190.0 L60.38914027149321 50.0 L60.294117647058826 50.0 L60.294117647058826 190.0 L62.35294117647059 190.0 L64.50678733031674 50.0 L64.41176470588235 50.0 L64.41176470588235 190.0 L66.47058823529412 190.0 L68.62443438914028 50.0 L68.52941176470588 50.0 L68.52941176470588 190.0 L70.58823529411765 190.0 L72.7420814479638 50.0 L72.6470588235294 50.0 L72.6470588235294 190.0 L74.70588235294117 190.0 L76.85972850678732 50.0 L76.76470588235294 50.0 L76.76470588235294 190.0 L78.8235294117647 190.0 L80.97737556561086 50.0 L80.88235294117646 50.0 L80.88235294117646 190.0 L82.94117647058823 190.0 L85.09502262443439 50.0 L85.0 50.0 L85.0 190.0 L87.05882352941177 190.0 L89.21266968325791 50.0 L89.11764705882352 50.0 L89.11764705882352 190.0 L91.17647058823529 190.0 L93.33031674208144 50.0 L93.23529411764706 50.0 L93.23529411764706 190.0 L95.29411764705881 190.0 L97.44796380090497 50.0 L97.35294117647058 50.0 L97.35294117647058 190.0 L99.41176470588235 190.0 L101.56561085972851 50.0 L101.47058823529412 50.0 L101.47058823529412 190.0 L103.52941176470588 190.0 L105.68325791855203 50.0 L105.58823529411764 50.0 L105.58823529411764 190.0 L107.6470588235294 190.0 L109.80090497737555 50.0 L109.70588235294117 50.0 L109.70588235294117 190.0 L111.76470588235293 190.0 L113.91855203619909 50.0 L113.8235294117647 50.0 L113.8235294117647 190.0 L115.88235294117646 190.0 L118.03619909502262 50.0 L117.94117647058823 50.0 L117.94117647058823 190.0 L120.0 190.0 L122.15384615384616 50.0 L122.05882352941175 50.0 L122.05882352941175 190.0 L124.11764705882352 190.0 L126.27149321266968 50.0 L126.17647058823529 50.0 L126.17647058823529 190.0 L128.23529411764704 190.0 L130.3891402714932 50.0 L130.2941176470588 50.0 L130.2941176470588 190.0 L132.35294117647058 190.0 L134.50678733031674 50.0 L134.41176470588235 50.0 L134.41176470588235 190.0 L136.47058823529412 190.0 L138.62443438914028 50.0 L138.52941176470586 50.0 L138.52941176470586 190.0 L140.58823529411762 190.0 L142.7420814479638 50.0 L142.6470588235294 50.0 L142.6470588235294 190.0 L144.70588235294116 190.0 L146.85972850678732 50.0 L146.76470588235293 50.0 L146.76470588235293 190.0 L148.8235294117647 190.0 L150.97737556561086 50.0 L150.88235294117646 50.0 L150.88235294117646 190.0 L152.94117647058823 190.0 L155.0950226244344 50.0 L155.0 50.0 L155.0 190.0 L157.05882352941177 190.0 L159.2126696832579 50.0 L159.11764705882354 50.0 L159.11764705882354 190.0 L161.17647058823528 190.0 L163.33031674208144 50.0 L163.23529411764704 50.0 L163.23529411764704 190.0 L165.2941176470588 190.0 L167.44796380090497 50.0 L167.35294117647058 50.0 L167.35294117647058 190.0 L169.41176470588235 190.0 L171.5656108597285 50.0 L171.4705882352941 50.0 L171.4705882352941 190.0 L173.52941176470586 190.0 L175.68325791855204 50.0 L175.58823529411762 50.0 L175.58823529411762 190.0 L177.6470588235294 190.0 L179.80090497737555 50.0 L179.70588235294116 50.0 L179.70588235294116 190.0 L181.76470588235293 190.0 L183.9185520361991 50.0 L183.8235294117647 50.0 L183.8235294117647 190.0 L185.88235294117646 190.0 L188.03619909502262 50.0 L187.94117647058823 50.0 L187.94117647058823 190.0"/><path d="M 188.76767021033754 48.78899288844275 L189.0574889989127 188.8052600088178 L189.15249715094114 188.80360163535545 L186.70916024972144 48.82492431346071 L184.65065028910533 48.86085573847862 L184.94046907768052 188.8771228588537 L185.03547722970893 188.87546448539132 L182.59214032848922 48.89678716349658 L180.53363036787314 48.93271858851449 L180.8234491564483 188.94898570888958 L180.91845730847675 188.94732733542722 L178.47512040725704 48.968650013532454 L176.41661044664093 49.00458143855039 L176.70642923521612 189.02084855892545 L176.80143738724456 189.0191901854631 L174.35810048602485 49.040512863568324 L172.29959052540875 49.07644428858626 L172.5894093139839 189.09271140896132 L172.68441746601235 189.09105303549896 L170.24108056479264 49.112375713604195 L168.18257060417653 49.14830713862213 L168.47238939275172 189.16457425899722 L168.56739754478014 189.16291588553483 L166.12406064356043 49.184238563640065 L164.06555068294435 49.220169988658 L164.3553694715195 189.2364371090331 L164.45037762354795 189.23477873557073 L162.00704072232824 49.256101413675935 L159.94853076171216 49.2920328386939 L160.23834955028732 189.30829995906896 L160.33335770231577 189.3066415856066 L157.89002080109606 49.327964263711806 L155.83151084047995 49.36389568872977 L156.1213296290551 189.38016280910483 L156.21633778108355 189.37850443564247 L153.77300087986384 49.399827113747676 L151.71449091924774 49.43575853876564 L152.00430970782293 189.4520256591407 L152.09931785985134 189.45036728567834 L149.65598095863166 49.47168996378355 L147.59747099801555 49.50762138880151 L147.8872897865907 189.52388850917657 L147.98229793861915 189.5222301357142 L145.53896103739945 49.54355281381942 L143.48045107678337 49.57948423883738 L143.77026986535853 189.59575135921244 L143.86527801738697 189.59409298575008 L141.42194111616726 49.615415663855316 L139.36343115555115 49.65134708887325 L139.65324994412632 189.6676142092483 L139.74825809615476 189.66595583578595 L137.30492119493505 49.68727851389119 L135.24641123431894 49.72320993890912 L135.53623002289413 189.73947705928418 L135.63123817492257 189.73781868582182 L133.18790127370286 49.75914136392706 L131.12939131308676 49.79507278894499 L131.41921010166192 189.81133990932005 L131.51421825369036 189.8096815358577 L129.07088135247065 49.83100421396293 L127.01237139185456 49.86693563898086 L127.30219018042972 189.88320275935592 L127.39719833245816 189.88154438589356 L124.95386143123845 49.902867063998826 L122.89535147062236 49.93879848901673 L123.18517025919752 189.9550656093918 L123.28017841122596 189.95340723592943 L120.83684151000625 49.9747299140347 L118.77833154939015 50.010661339052604 L119.0681503379653 190.02692845942767 L119.16315848999376 190.0252700859653 L116.71982158877405 50.04659276407057 L114.66131162815796 50.082524189088474 L114.95113041673312 190.09879130946356 L115.04613856876156 190.09713293600117 L112.60280166754185 50.11845561410644 L110.54429170692576 50.154387039124344 L110.83411049550094 190.17065415949943 L110.92911864752936 190.16899578603707 L108.48578174630966 50.19031846414231 L106.42727178569356 50.22624988916024 L106.71709057426872 190.2425170095353 L106.81209872629717 190.24085863607294 L104.36876182507746 50.26218131417818 L102.31025186446135 50.298112739196114 L102.60007065303651 190.31437985957118 L102.69507880506498 190.3127214861088 L100.25174190384527 50.33404416421405 L98.19323194322916 50.369975589231984 L98.48305073180431 190.38624270960707 L98.57805888383278 190.38458433614468 L96.13472198261307 50.40590701424992 L94.07621202199697 50.441838439267855 L94.36603081057214 190.45810555964295 L94.46103896260057 190.45644718618058 L92.01770206138086 50.47776986428579 L89.95919210076477 50.513701289303754 L90.24901088933993 190.52996840967882 L90.34401904136837 190.52831003621645 L87.90068214014866 50.54963271432166 L85.84217217953255 50.585564139339624 L86.13199096810771 190.6018312597147 L86.22699912013616 190.60017288625232 L83.78366221891645 50.62149556435753 L81.72515225830034 50.657426989375494 L82.01497104687554 190.67369410975056 L82.10997919890396 190.6720357362882 L79.66664229768425 50.6933584143934 L77.60813233706817 50.729289839411365 L77.89795112564335 190.74555695978643 L77.99295927767179 190.74389858632406 L75.54962237645208 50.76522126442927 L73.49111241583597 50.801152689447235 L73.78093120441113 190.8174198098223 L73.87593935643957 190.81576143635994 L71.43260245521986 50.83708411446517 L69.37409249460376 50.873015539483106 L69.66391128317892 190.88928265985817 L69.75891943520739 190.8876242863958 L67.31558253398768 50.90894696450104 L65.25707257337157 50.944878389518976 L65.54689136194672 190.96114550989404 L65.64189951397519 190.95948713643168 L63.19856261275548 50.98080981453691 L61.140052652139374 51.01674123955485 L61.42987144071454 191.0330083599299 L61.524879592742984 191.03134998646755 L59.081542691523275 51.05267266457278 L57.02303273090717 51.08860408959072 L57.31285151948234 191.10487120996578 L57.40785967151078 191.10321283650342 L54.96452277029107 51.12453551460868 L52.90601280967496 51.16046693962659 L53.19583159825012 191.17673406000165 L53.290839750278565 191.1750756865393 L50.847502849058856 51.19639836464455"/></svg>